<?xml version="1.0" encoding="iso-8859-1"?>
<!-- Generator: Adobe Illustrator 19.0.0, SVG Export Plug-In . SVG Version: 6.00 Build 0)  -->
<svg version="1.1" id="Capa_1" xmlns="http://www.w3.org/2000/svg" xmlns:xlink="http://www.w3.org/1999/xlink" x="0px" y="0px"
	 viewBox="0 0 512 512" style="enable-background:new 0 0 512 512;" xml:space="preserve">
<path style="fill:#E5E1E1;" d="M486.96,54.18c-1.699-0.718-3.567-1.116-5.527-1.116c-482.894,0-452.472-0.542-456.392,1.116
	c-5.145,2.176-8.673,7.253-8.673,13.086c0,7.239,0,423.228,0,430.468c0,7.84,6.355,14.201,14.201,14.201
	c478.404,0,451.854,0.367,455.087-0.638c5.776-1.797,9.977-7.186,9.977-13.564V67.266v-0.001
	C495.633,61.382,492.057,56.335,486.96,54.18z"/>
<path style="fill:#D1CFCF;" d="M36.97,497.733c0-7.162,0-423.304,0-430.468c0-7.843,6.357-14.201,14.201-14.201
	c-22.473,0-22.714-0.328-26.129,1.116c-5.145,2.176-8.673,7.253-8.673,13.086c0,7.239,0,423.228,0,430.468
	c0,7.84,6.355,14.201,14.201,14.201h20.601C43.327,511.935,36.97,505.576,36.97,497.733z"/>
<path style="fill:#EA473B;" d="M481.434,53.064h-51.717c-18.43,0-382.619,0-399.148,0c-7.843,0-14.201,6.358-14.201,14.201v102.462
	h479.265V67.265C495.633,59.422,489.275,53.064,481.434,53.064z"/>
<path style="fill:#D63322;" d="M36.97,67.265c0-7.843,6.357-14.201,14.201-14.201c-22.453,0-23.392-0.516-27.562,1.83
	c-4.598,2.595-7.24,7.396-7.24,12.372v102.461h20.602C36.97,160.191,36.97,76.714,36.97,67.265z"/>
<g>
	<path style="fill:#585A60;" d="M110.034,262.355c23.12,0,46.44,14.55,46.44,41.26c0,43.251-61.589,57.403-61.589,75.54v1.795
		h52.221c4.982,0,9.367,6.178,9.367,13.355c0,7.174-4.385,13.753-9.367,13.753H76.15c-5.581,0-13.554-3.788-13.554-9.569v-19.334
		c0-31.293,62.786-49.231,62.786-74.544c0-6.378-3.987-14.152-15.148-14.152c-7.973,0-14.949,3.988-14.949,14.948
		c0,5.78-6.179,11.361-16.343,11.361c-7.973,0-13.952-3.587-13.952-16.143C64.989,276.308,87.312,262.355,110.034,262.355z"/>
	<path style="fill:#585A60;" d="M170.893,362.213v-52.818c0-34.282,21.328-47.04,48.833-47.04s49.032,12.757,49.032,47.04v52.818
		c0,34.284-21.527,47.04-49.032,47.04S170.893,396.497,170.893,362.213z M237.665,309.395c0-13.753-6.777-19.932-17.939-19.932
		s-17.74,6.179-17.74,19.932v52.818c0,13.753,6.578,19.932,17.74,19.932s17.939-6.178,17.939-19.932V309.395z"/>
	<path style="fill:#585A60;" d="M301.81,297.036l-5.78,3.589c-11.753,7.831-21.335-13.908-8.969-21.328l26.309-15.944
		c5.928-3.711,19.533,0.221,19.533,8.371v126.764c0,12.758-31.094,12.758-31.094,0V297.036H301.81z"/>
	<path style="fill:#585A60;" d="M442.561,297.835c0,16.544-7.972,26.508-19.731,30.496c18.576,6.274,24.516,20.953,24.516,39.863
		c0,29.697-21.327,41.058-48.833,41.058c-27.505,0-49.031-11.361-49.031-41.058c0-18.996,6.12-33.583,24.715-39.863
		c-11.759-3.988-19.733-13.952-19.733-30.496c0-24.915,18.337-35.479,44.049-35.479C424.225,262.355,442.561,272.92,442.561,297.835
		z M416.252,360.022c0-12.957-6.578-18.936-17.74-18.936c-11.161,0-17.938,5.979-17.938,18.936v4.384
		c0,13.753,6.976,19.932,17.938,19.932c11.361,0,17.74-6.577,17.74-19.932V360.022z M384.361,301.82
		c0,10.365,5.183,14.351,14.152,14.351c8.97,0,14.152-3.986,14.152-14.351c0-10.164-5.182-14.55-14.152-14.55
		C389.543,287.27,384.361,291.656,384.361,301.82z"/>
</g>
<g>
	<path style="fill:#414356;" d="M78.941,316.769c3.586,0,6.662-0.704,9.16-1.857c-11.946-7.122-8.582-45.768,30.511-51.886
		c-25.675-4.03-53.624,10.444-53.624,37.6C64.989,313.181,70.968,316.769,78.941,316.769z"/>
	<path style="fill:#414356;" d="M79.764,398.489v-19.334c0-31.293,62.786-49.231,62.786-74.544
		c0-14.391-15.987-16.579-23.754-12.087c4.725,2.739,6.586,7.736,6.586,12.087c0,25.313-62.786,43.251-62.786,74.544v19.334
		c0,5.78,7.973,9.569,13.554,9.569h17.168C87.737,408.057,79.764,404.269,79.764,398.489z"/>
	<path style="fill:#414356;" d="M228.331,380.503c6.134,2.761,26.502,5.14,26.502-18.291v-52.818
		c0-23.035-19.911-21.257-26.502-18.29c5.932,2.643,9.334,8.564,9.334,18.29v52.818C237.665,371.939,234.263,377.86,228.331,380.503
		z"/>
	<path style="fill:#414356;" d="M188.06,362.213v-52.818c0-30.62,17.019-44.058,40.253-46.582
		c-33.149-3.599-57.42,10.708-57.42,46.582v52.818c0,35.621,23.963,50.21,57.42,46.582
		C205.08,406.271,188.06,392.834,188.06,362.213z"/>
	<path style="fill:#414356;" d="M318.002,398.489V271.725c0-4.018,3.332-7.039,7.45-8.593c-2.012-0.759-4.209-1.174-6.302-1.174
		c-4.627,0-2.997-0.291-32.089,17.34c-12.345,7.407-2.8,29.169,8.969,21.328l5.78-3.589V398.49c0,8.689,14.421,11.467,23.643,8.3
		C321.158,405.313,318.002,402.55,318.002,398.489z"/>
	<path style="fill:#414356;" d="M412.664,301.82c0,6.378-1.969,10.333-5.567,12.437c2.25,1.316,5.133,1.913,8.584,1.913
		c8.97,0,14.152-3.986,14.152-14.351c0-17.953-17.769-15.555-22.735-12.516C410.695,291.507,412.664,295.566,412.664,301.82z"/>
	<path style="fill:#414356;" d="M366.649,368.194c0-18.996,6.12-33.583,24.715-39.863c-11.759-3.988-19.733-13.952-19.733-30.496
		c0-22.04,14.355-32.843,35.465-35.045c-28.064-2.927-52.633,6.545-52.633,35.045c0,16.544,7.973,26.508,19.733,30.496
		c-18.568,6.271-24.715,20.867-24.715,39.863c0,32.233,26.126,43.689,57.612,40.652
		C383.826,406.607,366.649,394.719,366.649,368.194z"/>
	<path style="fill:#414356;" d="M407.079,382.661c6.295,2.856,26.341,5.096,26.341-18.255v-4.384
		c0-21.35-19.026-20.487-26.344-17.356c9.76,4.215,9.176,15.054,9.176,21.74C416.252,373.894,413.017,379.943,407.079,382.661z"/>
</g>
<rect x="16.369" y="137.37" style="fill:#3BBC56;" width="479.26" height="33.388"/>
<rect x="16.369" y="137.37" style="fill:#30AA44;" width="20.602" height="33.388"/>
<g>
	<path style="fill:#BABABA;" d="M111.964,95.667c-9.803,0-17.751-7.949-17.751-17.752V21.111c0-9.805,7.948-17.752,17.751-17.752
		c9.804,0,17.752,7.947,17.752,17.752v56.804C129.716,87.719,121.768,95.667,111.964,95.667z"/>
	<path style="fill:#BABABA;" d="M252.918,92.324c-9.805,0-17.751-7.948-17.751-17.752V17.768c0-9.804,7.946-17.752,17.751-17.752
		c9.803,0,17.751,7.948,17.751,17.752v56.804C270.669,84.376,262.721,92.324,252.918,92.324z"/>
	<path style="fill:#BABABA;" d="M393.871,97.515c-9.805,0-17.753-7.947-17.753-17.751V22.96c0-9.804,7.948-17.753,17.753-17.753
		c9.803,0,17.752,7.949,17.752,17.753v56.804C411.623,89.568,403.674,97.515,393.871,97.515z"/>
</g>
<g>
	<path style="fill:#A59F9F;" d="M111.964,77.916V21.111c0-6.567,3.575-12.288,8.876-15.358c-2.613-1.514-5.639-2.394-8.876-2.394
		c-9.803,0-17.751,7.947-17.751,17.752v56.804c0,9.803,7.948,17.752,17.751,17.752c3.237,0,6.262-0.881,8.876-2.394
		C115.539,90.202,111.964,84.481,111.964,77.916z"/>
	<path style="fill:#A59F9F;" d="M252.918,74.572V17.768c0-6.567,3.574-12.286,8.875-15.358
		c-11.812-6.844-26.626,1.706-26.626,15.358v56.804c0,13.641,14.806,22.206,26.626,15.358
		C256.492,86.858,252.918,81.139,252.918,74.572z"/>
	<path style="fill:#A59F9F;" d="M393.869,79.765V22.96c0-6.567,3.575-12.288,8.877-15.359c-11.811-6.841-26.628,1.706-26.628,15.359
		v56.804c0,9.804,7.948,17.751,17.753,17.751c3.237,0,6.262-0.88,8.875-2.394C397.444,92.051,393.869,86.331,393.869,79.765z"/>
</g>
<g>
</g>
<g>
</g>
<g>
</g>
<g>
</g>
<g>
</g>
<g>
</g>
<g>
</g>
<g>
</g>
<g>
</g>
<g>
</g>
<g>
</g>
<g>
</g>
<g>
</g>
<g>
</g>
<g>
</g>
</svg>
